<svg xmlns="http://www.w3.org/2000/svg" viewBox="0 0 200 200" width="200" height="200">
  <defs>
    <radialGradient id="poison-glow" cx="50%" cy="45%" r="50%">
      <stop offset="0%" stop-color="#6a2a8a" stop-opacity="0.2"/>
      <stop offset="100%" stop-color="#1a1a2e" stop-opacity="0"/>
    </radialGradient>
  </defs>
  <rect width="200" height="200" fill="#1a1a2e"/>
  <rect width="200" height="200" fill="url(#poison-glow)"/>
  <!-- Humanoid head with snake features -->
  <ellipse cx="100" cy="58" rx="19" ry="22" fill="#7a5a8a" opacity="0.9"/>
  <!-- Hood-like flare -->
  <path d="M78 55 Q70 42 72 58 Q68 48 75 60" fill="#6a4a7a" opacity="0.6"/>
  <path d="M122 55 Q130 42 128 58 Q132 48 125 60" fill="#6a4a7a" opacity="0.6"/>
  <!-- Snake-like body -->
  <path d="M80 75 L75 148 L125 148 L120 75 Z" fill="#5a3a6a" opacity="0.7"/>
  <!-- Scale pattern -->
  <path d="M90 90 L95 85 L100 90 L105 85 L110 90" fill="none" stroke="#8a6a9a" stroke-width="0.8" opacity="0.4"/>
  <path d="M88 100 L93 95 L98 100 L103 95 L108 100 L113 95" fill="none" stroke="#8a6a9a" stroke-width="0.8" opacity="0.35"/>
  <!-- Snake eyes - slit pupils -->
  <ellipse cx="90" cy="54" rx="5" ry="4" fill="#aa4aaa"/>
  <ellipse cx="110" cy="54" rx="5" ry="4" fill="#aa4aaa"/>
  <ellipse cx="90" cy="54" rx="1.2" ry="4" fill="#1a1a2e"/>
  <ellipse cx="110" cy="54" rx="1.2" ry="4" fill="#1a1a2e"/>
  <!-- Forked tongue -->
  <path d="M100 68 L100 75 L97 78 M100 75 L103 78" fill="none" stroke="#aa4aaa" stroke-width="1" opacity="0.6"/>
  <!-- Snake coil at bottom -->
  <path d="M85 142 Q70 150 80 155 Q95 148 105 155 Q120 150 115 142" fill="none" stroke="#6a4a7a" stroke-width="2" opacity="0.4"/>
  <text x="100" y="175" text-anchor="middle" font-family="Georgia, serif" font-size="16" fill="#c9a227" font-weight="bold">Yuan-ti</text>
</svg>